<svg width="30" height="30" viewBox="0 0 30 30" fill="none" xmlns="http://www.w3.org/2000/svg">
<rect width="30" height="30" rx="15" fill="#FEFEFE"/>
<path d="M15 3C8.37256 3 3 8.37256 3 15C3 21.6274 8.37256 27 15 27C21.6274 27 27 21.6274 27 15C27 8.37256 21.6274 3 15 3ZM20.5622 11.161C20.3816 13.0585 19.6002 17.6631 19.2025 19.7884C19.0343 20.6876 18.7031 20.9892 18.3825 21.0186C17.6857 21.0828 17.1564 20.5581 16.4815 20.1157C15.4253 19.4234 14.8287 18.9924 13.8034 18.3168C12.6187 17.5361 13.3867 17.1071 14.0619 16.4055C14.2386 16.222 17.309 13.4292 17.3685 13.1759C17.3759 13.1442 17.383 13.0259 17.3126 12.9637C17.2423 12.9016 17.1389 12.9226 17.0641 12.9395C16.9582 12.9636 15.271 14.0788 12.0025 16.2851C11.5236 16.614 11.0898 16.7742 10.7011 16.7658C10.2727 16.7565 9.4485 16.5236 8.83577 16.3244C8.08427 16.0801 7.48698 15.951 7.539 15.5361C7.5661 15.32 7.86368 15.099 8.43174 14.8732C11.93 13.349 14.2627 12.3442 15.4299 11.8587C18.7624 10.4725 19.4549 10.2317 19.9062 10.2237C20.0055 10.2221 20.2275 10.2466 20.3712 10.3633C20.4668 10.4464 20.5278 10.5624 20.542 10.6883C20.5664 10.8446 20.5731 11.0031 20.5622 11.161Z" fill="black"/>
</svg>
